<?xml version="1.0" encoding="UTF-8"?> <svg xmlns="http://www.w3.org/2000/svg" width="313" height="267" viewBox="0 0 313 267" fill="none"> <path fill-rule="evenodd" clip-rule="evenodd" d="M133.154 9.94509C76.8122 9.94509 19.7249 45.0491 5.05359 96.6977C20.9076 40.8858 72.2495 0 133.154 0C206.692 0 266.307 59.6149 266.307 133.154C266.307 206.692 206.692 266.307 133.154 266.307C59.6149 266.307 0 206.692 0 133.154C0 201.2 65.1075 248.627 133.154 248.627C201.2 248.627 251.942 201.2 251.942 133.154C251.942 65.1075 201.2 9.94509 133.154 9.94509Z" fill="url(#paint0_linear)"></path> <path d="M67.4887 139.689C65.1725 142.244 62.1376 144.081 58.2241 144.081C52.7931 144.081 47.8413 140.168 47.8413 133.778C47.8413 127.469 52.7132 123.555 57.8247 123.555C61.0993 123.555 64.0544 124.434 66.7699 127.07L71.0827 119.802C67.7283 116.447 62.5369 114.93 56.6267 114.93C45.6849 114.93 38.0176 123.316 38.0176 133.778C38.0176 145.12 45.8446 152.627 57.5052 152.627C63.3356 152.627 68.7666 150.471 71.8015 146.397L67.4887 139.689Z" fill="#111A58"></path> <path d="M103.693 151.749H112.878V115.808H79.1737V151.749H88.3584V124.434H103.693V151.749Z" fill="#111A58"></path> <path d="M157.748 115.808H147.285L140.816 135.376C140.177 137.213 139.857 138.97 139.538 140.647C138.979 138.89 138.5 137.213 137.781 135.456L129.395 115.808H118.373L134.985 151.749L134.187 153.665C132.669 157.419 130.992 159.256 128.676 159.256C127.238 159.256 125.881 158.537 124.922 157.978L121.967 164.927C124.044 166.444 126.44 167.722 129.714 167.722C134.985 167.722 138.34 164.607 143.611 151.749L157.748 115.808Z" fill="#111A58"></path> <path d="M159.811 124.993H171.632V151.749H180.816V124.993H192.557V115.808H159.811V124.993Z" fill="#111A58"></path> <path d="M224.05 151.749H233.234V115.808H224.05V129.386H208.316V115.808H199.131V151.749H208.316V138.011H224.05V151.749Z" fill="#111A58"></path> <path d="M311.306 115.808H299.725L286.787 133.619L301.003 151.749H312.983L297.489 132.9L311.306 115.808ZM277.283 151.749H286.467V115.808H277.283V151.749Z" fill="#111A58"></path> <defs> <linearGradient id="paint0_linear" x1="133.154" y1="-6.86629e-06" x2="-97.2409" y2="230.395" gradientUnits="userSpaceOnUse"> <stop stop-color="#111A58"></stop> <stop offset="1" stop-color="#21111A" stop-opacity="0"></stop> </linearGradient> </defs> </svg> 